<svg width="709" height="875" viewBox="0 0 709 875" fill="none" xmlns="http://www.w3.org/2000/svg">
<path d="M40.448 177L0 213.718C5.04808 315.401 49.8279 425.706 75 481.023C133.413 609.388 193.707 676.077 240 728C224.135 701.317 153.313 604.982 111 481.023C59.798 331.022 43.3326 248.154 40.448 177Z" fill="#FF7A40"/>
<path d="M665.043 61.1527L705.955 106C693.38 241.786 652.437 365.843 618.566 435.562C544.26 588.509 432.588 712.044 363.76 766.278C391.856 730.025 500.003 628.57 564.817 474.551C642.529 289.884 654.975 151.482 665.043 61.1527Z" fill="#FF7A40"/>
<path d="M669 0C414.417 45.9172 274.593 73.6075 30 131.464C71.1169 507.906 144.877 615.248 308.409 834C570.448 545.123 646.813 395.379 669 0Z" fill="white"/>
<path d="M622.419 57.7051C402.498 74.3629 282.193 96.7324 72.8999 170.926C108.259 495.132 171.691 587.577 312.323 775.975C537.668 527.184 603.34 398.219 622.419 57.7051Z" fill="#2472BC"/>
<mask id="mask0" mask-type="alpha" maskUnits="userSpaceOnUse" x="72" y="59" width="551" height="717">
<path d="M622.419 59.1474C403.486 98.6929 283.242 122.541 72.8999 172.369C108.259 496.574 171.691 587.578 312.323 775.975C537.668 527.184 603.34 399.661 622.419 59.1474Z" fill="#062448"/>
</mask>
<g mask="url(#mask0)">
<circle cx="343.5" cy="384.5" r="256.5" fill="#FF7A40"/>
<circle cx="342" cy="385" r="232" fill="white"/>
<mask id="mask1" mask-type="alpha" maskUnits="userSpaceOnUse" x="110" y="153" width="464" height="464">
<circle cx="342" cy="385" r="232" fill="#C4C4C4"/>
</mask>
<g mask="url(#mask1)">
<path d="M505 464C523.566 462.725 563.559 458.341 575 451" stroke="#2472BC" stroke-width="10"/>
<path d="M448.991 534C450.321 558.627 451.385 613.104 445 634" stroke="#2472BC" stroke-width="10"/>
<path d="M154 288L113 294" stroke="#2472BC" stroke-width="10"/>
<path d="M208 167V248" stroke="#2472BC" stroke-width="10"/>
<path d="M376 509C342.625 522.322 269.301 550.174 243 555" stroke="#2472BC" stroke-width="10"/>
<path d="M283 234.5C256.483 219.326 239.316 214.929 205.943 212C174.491 234.509 160.204 251.457 140 288.5L179.269 362L266.699 329L283 234.5Z" fill="#2472BC"/>
<path d="M255 318.977L379.834 422M480 260C479.252 294.341 475.963 369.593 468.787 395.871" stroke="#2472BC" stroke-width="10"/>
<path d="M408 196C377.023 197.486 305.254 215.909 266 248" stroke="#2472BC" stroke-width="10"/>
<path d="M183 338C177.442 369.945 166.932 443.869 169.357 484" stroke="#2472BC" stroke-width="10"/>
<path d="M391 200.302L399.189 152L456.511 176.151L525 236.528L521.278 267.472L477.356 272L391 200.302Z" fill="#2472BC"/>
<path d="M169.667 474L125 491.931L169.667 573.368L259 604L252.3 549.46L169.667 474Z" fill="#2472BC"/>
<path d="M517 464.386C507.22 426.686 496.323 408.57 470.181 380C427.642 384.735 405.375 392.132 368.369 413.605C361.551 453.506 359.276 475.775 360.194 515.167C360.194 515.167 381.003 534.584 407.385 543.545C433.767 552.506 454.575 554 454.575 554C489.714 523.559 503.926 504.167 517 464.386Z" fill="#2472BC"/>
</g>
</g>
<path d="M37.9999 490L15 525.5C40.4999 583.5 88.2882 651.658 116 683C180.307 755.732 231.627 800.371 284 826C268.096 811.619 216.524 775.368 153 687C89.4764 598.632 61 541 37.9999 490Z" fill="#2472BC"/>
<path d="M314.5 651L323.817 679.33H353.969L329.576 696.839L338.893 725.17L314.5 707.661L290.107 725.17L299.424 696.839L275.031 679.33H305.183L314.5 651Z" fill="#FF7A40"/>
</svg>
